<svg width="24" height="24" viewBox="0 0 24 24" fill="none" xmlns="http://www.w3.org/2000/svg">
  <path d="M16 21V19C16 17.8954 15.1046 17 14 17H6C4.89543 17 4 17.8954 4 19V21" stroke="#2563EB" stroke-width="1.8" stroke-linecap="round" stroke-linejoin="round"/>
  <path d="M10 13C12.2091 13 14 11.2091 14 9C14 6.79086 12.2091 5 10 5C7.79086 5 6 6.79086 6 9C6 11.2091 7.79086 13 10 13Z" stroke="#2563EB" stroke-width="1.8" stroke-linecap="round" stroke-linejoin="round"/>
  <path d="M20 21V19C19.9993 18.0768 19.3616 17.2757 18.5 17.07" stroke="#2563EB" stroke-width="1.8" stroke-linecap="round" stroke-linejoin="round"/>
  <path d="M15.5 5.13C16.3647 5.33122 17.0052 6.13442 17.0052 7.07C17.0052 8.00558 16.3647 8.80878 15.5 9.01" stroke="#2563EB" stroke-width="1.8" stroke-linecap="round" stroke-linejoin="round"/>
</svg>